<svg width="1048" height="847" viewBox="0 0 1048 847" fill="none" xmlns="http://www.w3.org/2000/svg">
<path fill-rule="evenodd" clip-rule="evenodd" d="M547.069 190.749C502.228 191.473 493.673 181.111 501.85 167.19C512.916 148.352 554.291 123.499 577.29 112.397C609.471 96.8227 646.73 84.524 683.641 75.6525C709.038 69.5492 734.276 65.0216 757.671 62.4933C821.279 55.618 871.158 62.5986 871.889 88.1145C872.385 105.711 859.743 121.406 841.043 135.211C824.397 147.501 802.97 158.346 781.562 167.511C758.3 177.47 735.066 185.446 718.224 191.772C604.104 234.482 614.123 227.444 527.428 259.028C498.657 269.51 459.244 284.231 401.12 306.434C338.525 330.453 272.603 355.287 217.608 383.607C209.829 387.613 202.261 391.681 194.996 395.901C176.456 406.672 159.708 418.087 145.23 429.917C106.359 461.683 84.1086 496.939 90.5782 536.862C92.7356 550.574 98.6297 561.796 107.509 571C113.107 576.801 119.877 581.842 127.802 586.072C177.048 612.356 269.75 608.378 371.37 586.634C406.461 579.13 442.635 569.611 478.374 558.332C501.913 550.907 525.26 542.729 548.018 533.978C652.613 493.753 744.837 442.001 785.647 394.844C812.277 363.989 802.615 323.243 745.273 303.466C708.306 290.714 651.31 286.728 571.359 300.089C651.207 287.653 707.992 292.175 744.715 305.289C799.335 324.8 809.057 363.444 783.285 392.639C742.354 439.123 650.046 489.098 545.991 528.675C523.294 537.309 500.049 545.472 476.654 553.039C441.131 564.528 405.284 574.662 370.431 582.603C269.606 605.576 177.339 611.127 128.128 585.383C120.244 581.259 113.436 576.361 107.973 570.527C99.4229 561.4 94.149 550.091 92.4825 536.63C87.8657 497.856 111.024 465.087 149.736 435.936C164.372 424.915 181.267 414.518 199.637 404.289C206.878 400.257 214.319 396.203 221.973 392.207C276.571 363.695 341.656 337.671 403.651 312.914C461.37 289.764 500.504 274.394 529.084 263.454C615.244 230.469 605.349 237.693 718.765 193.175C735.52 186.62 758.568 178.131 781.789 168.046C803.197 158.748 824.756 148.093 841.5 135.857C860.57 121.921 873.424 106 873.023 88.1179C872.452 62.2189 822.03 53.8825 757.416 60.4562C733.916 62.8469 708.52 67.09 683.031 73.247C646.002 82.1906 608.776 95.0791 576.602 110.966C553.59 122.357 512.248 147.786 501.308 166.841C493.162 181.026 501.685 191.953 547.069 190.749Z" fill="url(#paint0_linear_39_2)"/>
<path fill-rule="evenodd" clip-rule="evenodd" d="M574.65 256.712C529.809 257.436 521.255 247.073 529.431 233.152C540.498 214.315 581.872 189.462 604.871 178.36C637.052 162.785 674.311 150.487 711.222 141.615C736.619 135.512 761.857 130.984 785.252 128.456C848.86 121.58 898.739 128.561 899.47 154.077C899.966 171.674 887.324 187.369 868.624 201.174C851.978 213.464 830.551 224.308 809.143 233.474C785.881 243.432 762.647 251.409 745.805 257.734C631.685 300.444 641.704 293.406 555.009 324.991C526.238 335.472 486.825 350.194 428.701 372.397C366.106 396.416 300.184 421.25 245.19 449.569C237.41 453.576 229.842 457.644 222.578 461.864C204.037 472.635 187.289 484.049 172.811 495.88C133.94 527.646 111.69 562.902 118.159 602.825C120.317 616.537 126.211 627.759 135.09 636.963C140.688 642.764 147.458 647.805 155.383 652.034C204.629 678.319 297.331 674.341 398.952 652.597C434.043 645.093 470.216 635.574 505.955 624.294C529.494 616.87 552.842 608.692 575.599 599.94C680.195 559.715 772.418 507.964 813.228 460.807C839.858 429.952 830.196 389.206 772.854 369.428C735.887 356.676 678.891 352.69 598.94 366.051C678.788 353.616 735.573 358.138 772.296 371.252C826.916 390.763 836.638 429.407 810.866 458.601C769.935 505.086 677.627 555.061 573.572 594.637C550.875 603.272 527.63 611.435 504.235 619.002C468.712 630.491 432.865 640.625 398.012 648.566C297.187 671.539 204.921 677.089 155.709 651.346C147.826 647.222 141.018 642.324 135.555 636.49C127.004 627.363 121.73 616.054 120.064 602.593C115.447 563.819 138.605 531.05 177.318 501.899C191.954 490.878 208.848 480.48 227.218 470.252C234.459 466.22 241.9 462.166 249.554 458.169C304.152 429.658 369.237 403.634 431.232 378.877C488.951 355.727 528.085 340.357 556.665 329.416C642.826 296.432 632.93 303.655 746.346 259.137C763.101 252.583 786.149 244.094 809.37 234.008C830.778 224.71 852.337 214.055 869.081 201.82C888.15 187.884 901.005 171.962 900.604 154.08C900.033 128.181 849.61 119.845 784.997 126.419C761.497 128.809 736.101 133.053 710.612 139.21C673.583 148.153 636.357 161.042 604.183 176.928C581.171 188.32 539.829 213.749 528.889 232.804C520.743 246.988 529.266 257.915 574.65 256.712Z" fill="url(#paint1_linear_39_2)"/>
<path fill-rule="evenodd" clip-rule="evenodd" d="M600.702 340.384C555.861 341.108 547.307 330.746 555.483 316.825C566.55 297.987 607.924 273.135 630.923 262.032C663.104 246.458 700.363 234.159 737.275 225.288C762.672 219.184 787.909 214.657 811.304 212.128C874.912 205.253 924.791 212.234 925.522 237.75C926.019 255.346 913.376 271.041 894.676 284.846C878.031 297.136 856.603 307.981 835.195 317.146C811.933 327.105 788.699 335.081 771.857 341.407C657.737 384.117 667.756 377.079 581.061 408.663C552.29 419.145 512.877 433.866 454.753 456.069C392.158 480.088 326.236 504.922 271.242 533.242C263.462 537.248 255.894 541.316 248.63 545.536C230.09 556.307 213.341 567.722 198.864 579.552C159.992 611.318 137.742 646.574 144.211 686.497C146.369 700.21 152.263 711.432 161.142 720.635C166.74 726.436 173.51 731.477 181.435 735.707C230.681 761.991 323.383 758.013 425.004 736.269C460.095 728.765 496.268 719.246 532.007 707.967C555.546 700.542 578.894 692.364 601.651 683.613C706.247 643.388 798.47 591.637 839.281 544.479C865.91 513.624 856.248 472.879 798.906 453.101C761.939 440.349 704.943 436.363 624.992 449.724C704.84 437.288 761.625 441.81 798.348 454.924C852.969 474.435 862.691 513.079 836.918 542.274C795.987 588.758 703.679 638.733 599.624 678.31C576.927 686.945 553.682 695.107 530.288 702.674C494.764 714.163 458.917 724.297 424.064 732.238C323.239 755.212 230.973 760.762 181.761 735.019C173.878 730.894 167.07 725.996 161.607 720.162C153.056 711.035 147.782 699.727 146.116 686.265C141.499 647.491 164.657 614.722 203.37 585.571C218.006 574.55 234.901 564.153 253.27 553.924C260.511 549.892 267.953 545.838 275.606 541.842C330.205 513.33 395.29 487.306 457.284 462.549C515.003 439.399 554.137 424.029 582.717 413.089C668.878 380.105 658.982 387.328 772.398 342.81C789.153 336.256 812.201 327.766 835.422 317.681C856.831 308.383 878.389 297.728 895.133 285.493C914.203 271.556 927.057 255.635 926.657 237.753C926.085 211.854 875.663 203.518 811.049 210.091C787.549 212.482 762.153 216.725 736.664 222.882C699.636 231.826 662.409 244.714 630.235 260.601C607.223 271.992 565.882 297.421 554.941 316.476C546.795 330.661 555.318 341.588 600.702 340.384Z" fill="url(#paint2_linear_39_2)"/>
<defs>
<linearGradient id="paint0_linear_39_2" x1="873.961" y1="76.9048" x2="67.363" y2="594.525" gradientUnits="userSpaceOnUse">
<stop stop-color="white"/>
<stop offset="0.22" stop-color="#20FF17"/>
<stop offset="0.48" stop-color="#006797"/>
<stop offset="0.8" stop-color="#443AFF"/>
<stop offset="1" stop-color="white"/>
</linearGradient>
<linearGradient id="paint1_linear_39_2" x1="901.542" y1="142.867" x2="94.9442" y2="660.488" gradientUnits="userSpaceOnUse">
<stop stop-color="white"/>
<stop offset="0.22" stop-color="#20FF17"/>
<stop offset="0.48" stop-color="#006797"/>
<stop offset="0.8" stop-color="#443AFF"/>
<stop offset="1" stop-color="white"/>
</linearGradient>
<linearGradient id="paint2_linear_39_2" x1="927.594" y1="226.54" x2="120.996" y2="744.161" gradientUnits="userSpaceOnUse">
<stop stop-color="white"/>
<stop offset="0.22" stop-color="#20FF17"/>
<stop offset="0.48" stop-color="#006797"/>
<stop offset="0.8" stop-color="#443AFF"/>
<stop offset="1" stop-color="white"/>
</linearGradient>
</defs>
</svg>
