<svg width="396" height="315" viewBox="0 0 396 315" fill="none" xmlns="http://www.w3.org/2000/svg">
<path fill-rule="evenodd" clip-rule="evenodd" d="M220.764 66.7531C204.458 63.3716 202.008 58.5982 205.848 53.7935C211.046 47.292 227.612 40.9035 236.65 38.4188C249.298 34.9265 263.583 33.1373 277.525 32.6671C287.118 32.3438 296.555 32.627 305.197 33.5457C328.695 36.0428 346.343 42.8652 345.004 52.9568C344.077 59.9158 338.506 65.0529 330.857 68.9517C324.048 72.4227 315.596 74.9346 307.257 76.7878C298.195 78.8015 289.269 80.0379 282.764 81.148C238.696 88.6099 242.771 86.6619 209.348 91.9918C198.256 93.7606 183.039 96.3263 160.566 100.304C136.357 104.63 110.891 109.004 89.1683 115.642C86.0953 116.581 83.0951 117.562 80.1957 118.627C72.7954 121.346 66.0042 124.464 60.0105 127.932C43.9175 137.243 33.6322 149.286 33.4677 165.511C33.3877 171.078 34.8194 175.972 37.4603 180.317C39.1255 183.055 41.2634 185.59 43.8712 187.901C60.076 202.261 93.9415 208.276 132.158 208.035C145.355 207.954 159.071 207.169 172.739 205.656C181.742 204.661 190.722 203.355 199.525 201.775C239.983 194.511 276.679 181.704 294.443 166.5C306.039 156.546 305.098 139.737 285.548 127.273C272.945 119.237 252.528 113.01 222.696 111.727C252.433 113.366 272.74 119.786 285.231 127.944C303.811 140.081 304.906 156.069 293.725 165.44C275.96 180.37 239.344 192.471 199.123 199.524C190.35 201.063 181.408 202.372 172.449 203.435C158.845 205.048 145.209 206.101 132.071 206.374C94.0653 207.163 60.259 201.802 44.0327 187.657C41.4334 185.391 39.2727 182.909 37.6585 180.168C35.132 175.881 33.9306 171.004 34.1728 165.575C34.9369 149.953 45.395 138.963 61.2661 130.667C67.2664 127.53 74.0466 124.824 81.351 122.304C84.2301 121.311 87.1834 120.326 90.21 119.38C111.801 112.634 137.039 107.723 161.076 103.058C183.462 98.6756 198.619 95.832 209.67 93.8672C242.988 87.9433 238.946 89.9741 282.872 81.7437C289.359 80.5367 298.251 79.0834 307.305 77.0165C315.653 75.1112 324.141 72.6846 330.982 69.243C338.773 65.3229 344.436 60.1142 345.415 53.051C346.836 42.8218 329.076 35.4219 305.233 32.7239C296.561 31.7426 287.085 31.3346 277.455 31.6714C263.466 32.1604 249.156 34.1842 236.49 37.7999C227.429 40.3971 210.839 47.0149 205.674 53.6121C201.828 58.5229 204.231 63.5159 220.764 66.7531Z" fill="url(#paint0_linear_6_23)"/>
<path fill-rule="evenodd" clip-rule="evenodd" d="M226.617 94.942C210.311 91.5606 207.861 86.7871 211.701 81.9824C216.899 75.4809 233.465 69.0925 242.503 66.6077C255.151 63.1154 269.436 61.3262 283.378 60.856C292.971 60.5327 302.408 60.8159 311.05 61.7345C334.548 64.2317 352.196 71.0541 350.857 81.1457C349.93 88.1046 344.359 93.2417 336.71 97.1405C329.901 100.612 321.449 103.124 313.11 104.977C304.048 106.99 295.122 108.227 288.617 109.337C244.549 116.799 248.625 114.851 215.201 120.181C204.109 121.95 188.892 124.515 166.419 128.493C142.21 132.819 116.744 137.193 95.0213 143.831C91.9484 144.77 88.9482 145.751 86.0487 146.816C78.6484 149.535 71.8572 152.653 65.8635 156.121C49.7706 165.432 39.4852 177.475 39.3208 193.7C39.2408 199.267 40.6725 204.161 43.3134 208.506C44.9786 211.244 47.1165 213.779 49.7243 216.09C65.9291 230.45 99.7946 236.465 138.011 236.224C151.208 236.143 164.924 235.358 178.592 233.845C187.595 232.85 196.576 231.544 205.378 229.964C245.836 222.7 282.532 209.893 300.296 194.689C311.892 184.735 310.951 167.926 291.401 155.462C278.799 147.426 258.381 141.199 228.549 139.916C258.286 141.555 278.593 147.975 291.084 156.133C309.664 168.27 310.759 184.258 299.578 193.629C281.813 208.559 245.198 220.66 204.976 227.713C196.203 229.252 187.261 230.561 178.302 231.624C164.698 233.237 151.062 234.29 137.924 234.563C99.9184 235.352 66.1121 229.991 49.8858 215.846C47.2864 213.58 45.1257 211.098 43.5116 208.358C40.985 204.07 39.7837 199.193 40.0259 193.764C40.79 178.142 51.248 167.152 67.1191 158.856C73.1194 155.719 79.8996 153.013 87.204 150.493C90.0831 149.5 93.0365 148.515 96.0631 147.569C117.654 140.823 142.892 135.912 166.929 131.247C189.315 126.865 204.472 124.021 215.523 122.056C248.841 116.132 244.799 118.163 288.725 109.933C295.212 108.726 304.104 107.272 313.158 105.205C321.506 103.3 329.994 100.873 336.835 97.4319C344.626 93.5118 350.289 88.303 351.268 81.2398C352.689 71.0106 334.929 63.6108 311.086 60.9128C302.414 59.9315 292.938 59.5235 283.308 59.8603C269.319 60.3493 255.009 62.3731 242.343 65.9888C233.282 68.586 216.692 75.2038 211.527 81.8011C207.681 86.7119 210.084 91.7048 226.617 94.942Z" fill="url(#paint1_linear_6_23)"/>
<path fill-rule="evenodd" clip-rule="evenodd" d="M230.803 129.969C214.498 126.587 212.047 121.814 215.887 117.009C221.085 110.507 237.651 104.119 246.689 101.634C259.337 98.142 273.622 96.3528 287.564 95.8826C297.158 95.5593 306.594 95.8426 315.236 96.7612C338.734 99.2583 356.382 106.081 355.043 116.172C354.116 123.131 348.545 128.268 340.896 132.167C334.087 135.638 325.635 138.15 317.296 140.003C308.234 142.017 299.308 143.253 292.803 144.363C248.735 151.825 252.811 149.877 219.387 155.207C208.295 156.976 193.078 159.542 170.605 163.519C146.396 167.845 120.93 172.219 99.2074 178.857C96.1344 179.797 93.1342 180.777 90.2347 181.842C82.8344 184.561 76.0433 187.68 70.0496 191.148C53.9566 200.459 43.6712 212.501 43.5067 228.726C43.4268 234.294 44.8584 239.188 47.4994 243.532C49.1646 246.271 51.3024 248.806 53.9102 251.117C70.1151 265.477 103.981 271.492 142.197 271.251C155.394 271.169 169.11 270.384 182.778 268.872C191.781 267.877 200.761 266.57 209.564 264.99C250.022 257.727 286.718 244.92 304.482 229.716C316.078 219.762 315.137 202.952 295.587 190.489C282.985 182.453 262.567 176.226 232.735 174.942C262.472 176.581 282.779 183.002 295.27 191.16C313.85 203.296 314.945 219.284 303.764 228.656C285.999 243.585 249.383 255.687 209.162 262.74C200.389 264.279 191.447 265.588 182.488 266.65C168.884 268.263 155.248 269.317 142.11 269.589C104.104 270.378 70.298 265.017 54.0718 250.873C51.4724 248.607 49.3117 246.124 47.6976 243.384C45.171 239.096 43.9697 234.219 44.2119 228.791C44.976 213.169 55.434 202.179 71.3051 193.882C77.3054 190.746 84.0856 188.039 91.39 185.52C94.2691 184.526 97.2225 183.541 100.249 182.595C121.84 175.849 147.078 170.939 171.115 166.274C193.501 161.891 208.658 159.048 219.709 157.083C253.027 151.159 248.985 153.19 292.911 144.959C299.398 143.752 308.29 142.299 317.344 140.232C325.692 138.327 334.18 135.9 341.021 132.459C348.812 128.538 354.475 123.33 355.454 116.266C356.875 106.037 339.115 98.6374 315.272 95.9394C306.6 94.9581 297.124 94.5501 287.494 94.8869C273.505 95.3759 259.195 97.3997 246.529 101.015C237.468 103.613 220.878 110.23 215.713 116.828C211.867 121.738 214.27 126.731 230.803 129.969Z" fill="url(#paint2_linear_6_23)"/>
<g filter="url(#filter0_d_6_23)">
<path d="M4.54688 63.2997L346.182 -6.8348e-06L391.269 243.575L49.6342 306.875L4.54688 63.2997Z" fill="url(#paint3_linear_6_23)" shape-rendering="crispEdges"/>
<path d="M5.12951 63.7003L345.781 0.582731L390.686 243.175L50.0349 306.292L5.12951 63.7003Z" stroke="black" shape-rendering="crispEdges"/>
</g>
<defs>
<filter id="filter0_d_6_23" x="0.546875" y="0" width="394.722" height="314.875" filterUnits="userSpaceOnUse" color-interpolation-filters="sRGB">
<feFlood flood-opacity="0" result="BackgroundImageFix"/>
<feColorMatrix in="SourceAlpha" type="matrix" values="0 0 0 0 0 0 0 0 0 0 0 0 0 0 0 0 0 0 127 0" result="hardAlpha"/>
<feOffset dy="4"/>
<feGaussianBlur stdDeviation="2"/>
<feComposite in2="hardAlpha" operator="out"/>
<feColorMatrix type="matrix" values="0 0 0 0 0 0 0 0 0 0 0 0 0 0 0 0 0 0 0.25 0"/>
<feBlend mode="normal" in2="BackgroundImageFix" result="effect1_dropShadow_6_23"/>
<feBlend mode="normal" in="SourceGraphic" in2="effect1_dropShadow_6_23" result="shape"/>
</filter>
<linearGradient id="paint0_linear_6_23" x1="346.46" y1="48.7191" x2="16.8652" y2="174.323" gradientUnits="userSpaceOnUse">
<stop stop-color="white"/>
<stop offset="0.22" stop-color="#20FF17"/>
<stop offset="0.48" stop-color="#006797"/>
<stop offset="0.8" stop-color="#443AFF"/>
<stop offset="1" stop-color="white"/>
</linearGradient>
<linearGradient id="paint1_linear_6_23" x1="352.313" y1="76.9079" x2="22.7183" y2="202.512" gradientUnits="userSpaceOnUse">
<stop stop-color="white"/>
<stop offset="0.22" stop-color="#20FF17"/>
<stop offset="0.48" stop-color="#006797"/>
<stop offset="0.8" stop-color="#443AFF"/>
<stop offset="1" stop-color="white"/>
</linearGradient>
<linearGradient id="paint2_linear_6_23" x1="356.499" y1="111.935" x2="26.9043" y2="237.538" gradientUnits="userSpaceOnUse">
<stop stop-color="white"/>
<stop offset="0.22" stop-color="#20FF17"/>
<stop offset="0.48" stop-color="#006797"/>
<stop offset="0.8" stop-color="#443AFF"/>
<stop offset="1" stop-color="white"/>
</linearGradient>
<linearGradient id="paint3_linear_6_23" x1="358.924" y1="105.77" x2="81.2319" y2="474.362" gradientUnits="userSpaceOnUse">
<stop/>
<stop offset="1" stop-opacity="0"/>
</linearGradient>
</defs>
</svg>
