<svg width="308" height="290" viewBox="0 0 308 290" fill="none" xmlns="http://www.w3.org/2000/svg">
<path fill-rule="evenodd" clip-rule="evenodd" d="M197.96 254.445C202.055 254.429 206.084 253.921 209.928 252.952C214.042 251.915 217.945 250.348 221.482 248.203C230.4 242.786 238.151 235.806 244.902 227.567C252.006 218.895 258 208.834 263.144 197.84C278.282 165.485 285.955 124.888 291.945 86.3877C291.948 86.3673 291.94 86.347 291.926 86.3424C291.911 86.3378 291.898 86.3505 291.894 86.3709C285.85 124.822 278.139 165.38 262.949 197.647C257.799 208.588 251.777 218.556 244.69 227.2C237.96 235.41 230.264 242.429 221.384 247.865C217.868 250.02 213.989 251.627 209.892 252.653C206.061 253.611 202.041 254.059 197.96 254.041C197.883 254.041 197.821 254.131 197.821 254.244C197.821 254.355 197.883 254.445 197.96 254.445Z" fill="url(#paint0_linear_6_33)"/>
<path fill-rule="evenodd" clip-rule="evenodd" d="M0.547094 155.905C-2.20103 189.463 8.16043 234.181 40.9891 266.901C65.2338 291.064 100.374 295.097 123.996 277.718C189.291 229.685 210.114 109.874 224.352 0.0377197" fill="url(#paint1_linear_6_33)"/>
<path fill-rule="evenodd" clip-rule="evenodd" d="M0.409088 155.881C-0.563982 167.886 0.167581 181.299 2.94029 195.104C4.55572 203.149 6.85245 211.335 9.95669 219.442C16.4587 236.423 26.4416 253.081 40.7064 267.499C52.5613 279.451 67.0374 286.639 81.53 288.795C87.4288 289.67 93.3314 289.722 99.0534 288.903C108.154 287.6 116.795 284.113 124.28 278.537C143.445 264.148 158.671 243.547 171.092 218.944C176.317 208.594 181.06 197.55 185.37 185.927C199.614 147.509 209.277 102.88 216.448 57.4288C219.468 38.2976 221.995 19.0142 224.378 0.0448165C224.381 0.0243377 224.371 0.00446098 224.357 0.000646305C224.344 -0.00316837 224.33 0.0102836 224.327 0.0309632C221.797 18.9538 219.022 38.1539 215.955 57.263C208.675 102.639 199.483 147.445 185.257 185.839C180.952 197.451 176.204 208.488 170.912 218.751C158.394 243.031 142.927 263.054 123.712 276.901C116.335 282.262 107.833 285.466 98.9069 286.701C93.2779 287.48 87.4786 287.482 81.6738 286.679C67.3741 284.699 53.046 277.903 41.2715 266.3C26.976 252.252 16.9009 235.907 10.307 219.155C7.14947 211.132 4.77609 203.021 3.14465 195.018C0.344048 181.279 -0.304112 167.886 0.684976 155.93C0.693951 155.819 0.639546 155.719 0.563462 155.705C0.487379 155.691 0.418202 155.771 0.409088 155.881Z" fill="url(#paint2_linear_6_33)"/>
<path fill-rule="evenodd" clip-rule="evenodd" d="M120.471 280.055C126.455 280.517 132.39 280.062 138.045 278.67C144.055 277.193 149.747 274.657 154.849 271.058C179.251 253.706 196.77 225.633 209.816 191.882C216.399 174.852 221.807 156.359 226.462 137.111C230.969 118.475 234.859 99.1563 238.059 79.6058C240.803 62.841 243.041 45.9213 245.174 29.2886C242.851 45.86 240.273 62.6631 237.483 79.4047C234.231 98.9169 230.697 118.356 226.237 136.995C221.633 156.244 216.135 174.662 209.544 191.658C196.501 225.291 179.026 253.281 154.679 270.553C149.618 274.172 143.967 276.732 137.997 278.254C132.363 279.691 126.448 280.205 120.479 279.803C120.432 279.8 120.391 279.854 120.389 279.924C120.386 279.994 120.423 280.053 120.471 280.055Z" fill="url(#paint3_linear_6_33)"/>
<path fill-rule="evenodd" clip-rule="evenodd" d="M157.285 268.697C162.677 269.105 168.022 268.782 173.123 267.689C175.796 267.115 178.405 266.349 180.911 265.334C183.53 264.273 186.033 262.939 188.402 261.401C196.978 255.786 204.615 248.849 211.465 240.872C222.14 228.438 230.88 213.431 238.154 196.704C250.469 168.386 258.641 135.188 264.775 101.358C267.381 86.9887 269.601 72.5033 271.668 58.2552C271.67 58.2347 271.662 58.2146 271.647 58.2102C271.634 58.2058 271.62 58.2188 271.616 58.2392C269.484 72.4627 267.16 86.9075 264.524 101.26C258.324 135.028 250.302 168.271 237.969 196.533C230.696 213.203 221.944 228.157 211.238 240.458C204.384 248.333 196.721 255.101 188.149 260.572C185.804 262.083 183.317 263.345 180.735 264.433C178.257 265.477 175.69 266.359 173.05 267.025C167.985 268.303 162.666 268.858 157.285 268.672C157.281 268.671 157.276 268.677 157.276 268.684C157.276 268.691 157.28 268.697 157.285 268.697Z" fill="url(#paint4_linear_6_33)"/>
<path fill-rule="evenodd" clip-rule="evenodd" d="M208.201 253.388C212.55 253.375 216.828 252.969 220.91 252.195C225.278 251.366 229.422 250.113 233.178 248.399C242.648 244.069 250.878 238.491 258.047 231.906C265.59 224.975 271.954 216.934 277.417 208.148C293.491 182.289 301.638 149.842 307.999 119.072C308.003 119.056 307.993 119.04 307.979 119.036C307.963 119.032 307.949 119.042 307.945 119.059C301.527 149.79 293.339 182.205 277.21 207.994C271.741 216.738 265.347 224.705 257.822 231.613C250.675 238.175 242.503 243.785 233.074 248.129C229.341 249.851 225.222 251.135 220.872 251.956C216.804 252.722 212.535 253.079 208.201 253.065C208.12 253.065 208.054 253.137 208.054 253.227C208.054 253.316 208.12 253.388 208.201 253.388Z" fill="url(#paint5_linear_6_33)"/>
<defs>
<linearGradient id="paint0_linear_6_33" x1="222.374" y1="261.293" x2="332.037" y2="148.623" gradientUnits="userSpaceOnUse">
<stop stop-color="#0089FF"/>
<stop offset="0.57" stop-color="#00FF11"/>
<stop offset="1" stop-color="white"/>
</linearGradient>
<linearGradient id="paint1_linear_6_33" x1="113.535" y1="508.352" x2="6.72981" y2="163.633" gradientUnits="userSpaceOnUse">
<stop stop-color="white"/>
<stop offset="0.19" stop-color="#7B7B7B"/>
<stop offset="1"/>
</linearGradient>
<linearGradient id="paint2_linear_6_33" x1="229.19" y1="26.856" x2="-41.9463" y2="152.437" gradientUnits="userSpaceOnUse">
<stop stop-color="#FFF0F9"/>
<stop offset="0.48" stop-color="#07FF00"/>
<stop offset="1" stop-color="#00236C"/>
</linearGradient>
<linearGradient id="paint3_linear_6_33" x1="154.912" y1="217.351" x2="305.121" y2="119.399" gradientUnits="userSpaceOnUse">
<stop stop-color="#0089FF"/>
<stop offset="0.54" stop-color="#1AFF00"/>
<stop offset="1" stop-color="white"/>
</linearGradient>
<linearGradient id="paint4_linear_6_33" x1="196.77" y1="249.935" x2="314.97" y2="122.352" gradientUnits="userSpaceOnUse">
<stop stop-color="#0089FF"/>
<stop offset="0.55" stop-color="#00FF08"/>
<stop offset="1" stop-color="white"/>
</linearGradient>
<linearGradient id="paint5_linear_6_33" x1="234.126" y1="258.861" x2="317.723" y2="144.749" gradientUnits="userSpaceOnUse">
<stop stop-color="#0089FF"/>
<stop offset="0.57" stop-color="#00FF11"/>
<stop offset="1" stop-color="white"/>
</linearGradient>
</defs>
</svg>
